<svg xmlns="http://www.w3.org/2000/svg" width="15" height="22" viewBox="0 0 15 22">
  <defs>
    <style>
      .cls-1 {
        fill: #fff;
        fill-rule: evenodd;
      }
    </style>
  </defs>
  <path id="адрес" class="cls-1" d="M1282.65,1378.48a6.237,6.237,0,0,0-.36-0.88,7.44,7.44,0,0,0-14.29,2.22v0.94c0,0.04.01,0.39,0.03,0.57,0.27,2.19,1.98,4.52,3.26,6.71,1.38,2.34,2.8,4.65,4.21,6.96,0.88-1.51,1.74-3.03,2.59-4.5,0.24-.43.51-0.86,0.74-1.27,0.15-.27.45-0.55,0.58-0.8,1.38-2.54,3.59-5.1,3.59-7.63v-1.03A8.407,8.407,0,0,0,1282.65,1378.48Zm-7.19,4.71a2.661,2.661,0,0,1-2.55-1.84,2.452,2.452,0,0,1-.07-0.68v-0.61a2.524,2.524,0,0,1,2.7-2.5,2.756,2.756,0,0,1,2.75,2.81A2.825,2.825,0,0,1,1275.46,1383.19Z" transform="translate(-1268 -1373)"/>
</svg>
