<svg xmlns="http://www.w3.org/2000/svg" width="15" height="22" viewBox="0 0 15 22">
  <defs>
    <style>
      .cls-1 {
        fill: #bb1d1d;
        fill-rule: evenodd;
      }
    </style>
  </defs>
  <path id="адрес" class="cls-1" d="M1282.65,45.476a6.789,6.789,0,0,0-.36-0.88A7.44,7.44,0,0,0,1268,46.825v0.939c0,0.039.01,0.391,0.03,0.567,0.27,2.19,1.98,4.517,3.26,6.707,1.38,2.346,2.8,4.654,4.21,6.962,0.88-1.506,1.74-3.031,2.59-4.5,0.24-.43.51-0.861,0.74-1.271,0.15-.274.45-0.547,0.58-0.8,1.38-2.542,3.59-5.1,3.59-7.627V46.766A8.955,8.955,0,0,0,1282.65,45.476Zm-7.19,4.713a2.66,2.66,0,0,1-2.55-1.838,2.469,2.469,0,0,1-.07-0.685V47.059a2.526,2.526,0,0,1,2.7-2.5,2.758,2.758,0,0,1,2.75,2.816A2.825,2.825,0,0,1,1275.46,50.189Z" transform="translate(-1268 -40)"/>
</svg>
